# xmcd CD database file
#
# Track frame offsets:
#	150
#	17335
#	37597
#	58461
#	76794
#	94979
#	114995
#	135868
#	155321
#	173689
#	193935
#	212919
#
# Disc length: 3297 seconds
#
# Revision: 2
# Processed by: cddbd v1.5.1PL0 Copyright (c) Steve Scherf et al.
# Submitted via: CdAid (MTCDDB.DLL V2003.12.21)
#
DISCID=8e0cdf0c
DTITLE=Fernando Echavarria and La Familia Andre - Pititijinqui
DYEAR=2000
DGENRE=Rock
TTITLE0=Donde e' que e'
TTITLE1=Full de amor
TTITLE2=Ah! Pandora
TTITLE3=Bacan Sonero
TTITLE4=Hechizo de Luna
TTITLE5=Soy Caribe
TTITLE6=Corazon herido
TTITLE7=Africa
TTITLE8=Cintura de miel
TTITLE9=Ali se esconde tu veneno
TTITLE10=Cayo la lluvia
TTITLE11=Medley Fuson
EXTD=ID3G:  17 YEAR: 2000
EXTT0=
EXTT1=
EXTT2=
EXTT3=
EXTT4=
EXTT5=
EXTT6=
EXTT7=
EXTT8=
EXTT9=
EXTT10=
EXTT11=
PLAYORDER=
